<?xml version="1.0" encoding="UTF-8" standalone="no"?>
<!DOCTYPE svg PUBLIC "-//W3C//DTD SVG 1.1//EN" "http://www.w3.org/Graphics/SVG/1.1/DTD/svg11.dtd">
<svg width="100%" height="100%" viewBox="0 0 2200 1100" version="1.1" xmlns="http://www.w3.org/2000/svg" xmlns:xlink="http://www.w3.org/1999/xlink" xml:space="preserve" xmlns:serif="http://www.serif.com/" style="fill-rule:evenodd;clip-rule:evenodd;stroke-linejoin:round;stroke-miterlimit:2;">
    <g id="white-on-black-right" serif:id="white on black right">
        <g transform="matrix(1.04762,0,0,1.22222,8.52651e-14,5.68434e-14)">
            <path d="M2100,0L0,0L0,765C0,839.509 70.573,900 157.5,900L2100,900L2100,0Z"/>
        </g>
        <g transform="matrix(1,0,0,1,160.095,67.7402)">
            <path d="M1331.4,674.234L1323.25,674.234L1323.25,681.736L1322.99,681.736C1316.91,673.846 1311.22,672.682 1302.42,672.682C1283.02,672.682 1275.26,687.169 1275.26,707.217C1275.26,721.833 1281.99,740.201 1303.07,740.201C1311.48,740.201 1318.72,736.838 1323.12,727.266L1323.38,727.266C1323.38,745.892 1321.57,761.155 1300.61,761.155C1293.5,761.155 1286.26,759.085 1281.21,756.498L1280.57,764.647C1283.93,765.682 1291.82,768.139 1300.48,768.139C1323.12,768.139 1331.4,753.135 1331.4,734.768L1331.4,674.234ZM990.831,767.363L998.98,767.363L998.98,728.947L999.239,728.947C1003.25,737.484 1009.46,741.753 1019.81,741.753C1037.91,741.753 1046.97,726.749 1046.97,707.217C1046.97,687.169 1039.21,672.682 1019.81,672.682C1005.84,672.682 1000.79,682.642 998.721,686.263L998.462,686.263L998.98,674.234L990.831,674.234L990.831,767.363ZM361.177,707.217C361.177,725.196 370.619,741.753 391.961,741.753C413.303,741.753 422.745,725.196 422.745,707.217C422.745,689.238 413.303,672.682 391.961,672.682C370.619,672.682 361.177,689.238 361.177,707.217ZM433.093,707.217C433.093,725.196 442.535,741.753 463.877,741.753C485.219,741.753 494.662,725.196 494.662,707.217C494.662,689.238 485.219,672.682 463.877,672.682C442.535,672.682 433.093,689.238 433.093,707.217ZM789.052,651.728C784.396,649.271 773.66,648.365 768.357,648.365C740.418,648.365 722.827,667.638 722.827,695.059C722.827,722.998 739.901,741.753 768.357,741.753C774.048,741.753 784.137,740.847 789.052,737.872L788.535,730.112C783.361,733.216 774.307,733.992 768.357,733.992C744.557,733.992 731.752,717.824 731.752,695.059C731.752,672.682 744.945,656.126 768.357,656.126C774.695,656.126 782.843,657.031 788.535,660.006L789.052,651.728ZM569.682,707.217C569.682,725.196 579.124,741.753 600.466,741.753C621.808,741.753 631.25,725.196 631.25,707.217C631.25,689.238 621.808,672.682 600.466,672.682C579.124,672.682 569.682,689.238 569.682,707.217ZM806.902,707.217C806.902,725.196 816.344,741.753 837.686,741.753C859.028,741.753 868.47,725.196 868.47,707.217C868.47,689.238 859.028,672.682 837.686,672.682C816.344,672.682 806.902,689.238 806.902,707.217ZM169.745,737.872C174.531,739.942 181.387,741.753 190.182,741.753C204.151,741.753 219.802,734.509 219.802,716.272C219.802,689.885 178.412,689.756 178.412,671.647C178.412,660.006 188.63,656.126 197.943,656.126C204.022,656.126 210.36,657.29 214.37,659.489L215.792,651.34C209.584,649.012 202.47,648.365 198.072,648.365C182.163,648.365 169.487,657.419 169.487,671.906C169.487,695.576 210.877,697.775 210.877,715.496C210.877,728.301 201.694,733.992 190.57,733.992C182.163,733.992 175.954,732.052 170.651,728.689L169.745,737.872ZM1115,674.234L1106.85,674.234L1106.85,710.71C1106.85,721.704 1102.2,734.768 1087.32,734.768C1076.07,734.768 1071.67,726.749 1071.67,714.331L1071.67,674.234L1063.52,674.234L1063.52,716.401C1063.52,730.888 1069.73,741.753 1086.03,741.753C1099.74,741.753 1104.65,734.38 1107.37,728.43L1107.63,728.43L1107.63,740.201L1115.52,740.201C1115,734.897 1115,729.724 1115,724.679L1115,674.234ZM280.465,675.269C278.137,674.493 272.446,672.682 264.556,672.682C245.025,672.682 231.961,686.91 231.961,707.217C231.961,725.584 242.308,741.753 263.521,741.753C269.73,741.753 274.903,741.365 280.465,739.424L279.689,731.793C274.774,733.604 269.988,734.768 264.814,734.768C249.94,734.768 240.886,722.221 240.886,707.217C240.886,691.179 249.81,679.667 265.72,679.667C270.118,679.667 275.421,681.09 279.819,683.03L280.465,675.269ZM1163.89,674.234L1148.89,674.234L1148.89,655.479L1140.74,658.325L1140.74,674.234L1127.81,674.234L1127.81,681.219L1140.74,681.219L1140.74,719.764C1140.74,731.793 1141.26,741.753 1155.75,741.753C1159.76,741.753 1163.77,740.718 1165.71,739.942L1165.19,733.216C1162.86,734.121 1160.79,734.768 1157.69,734.768C1151.09,734.768 1148.89,729.853 1148.89,723.903L1148.89,681.219L1163.89,681.219L1163.89,674.234ZM652.204,740.201L660.353,740.201L660.353,681.219L675.228,681.219L675.228,674.234L660.353,674.234L660.353,668.543C660.353,660.653 659.189,648.624 670.313,648.624C672.641,648.624 675.099,649.141 676.78,650.047L677.297,642.933C675.745,642.027 672.253,641.639 669.666,641.639C652.722,641.639 652.204,655.609 652.204,669.449L652.204,674.234L638.882,674.234L638.882,681.219L652.204,681.219L652.204,740.201ZM971.688,740.201L971.688,694.8C971.688,681.995 964.186,672.682 950.863,672.682C940.516,672.682 932.755,678.891 929.78,686.651L929.521,686.651C927.452,675.14 917.88,672.682 912.06,672.682C897.961,672.682 894.081,680.96 891.494,685.487L891.235,685.358L891.235,674.234L883.345,674.234C883.862,679.537 883.862,684.711 883.862,689.756L883.862,740.201L892.011,740.201L892.011,703.725C892.011,687.298 900.807,679.667 909.731,679.667C920.208,679.667 923.701,687.039 923.701,696.352L923.701,740.201L931.85,740.201L931.85,703.725C931.85,687.298 940.645,679.667 949.57,679.667C960.047,679.667 963.539,687.039 963.539,696.352L963.539,740.201L971.688,740.201ZM294.305,740.201L302.454,740.201L302.454,704.889C302.454,693.377 307.498,679.667 321.985,679.667C335.437,679.667 337.636,689.497 337.636,700.879L337.636,740.201L345.785,740.201L345.785,700.75C345.785,684.453 340.999,672.682 323.279,672.682C313.578,672.682 306.205,678.115 302.713,685.358L302.454,685.358L302.454,643.191L294.305,643.191L294.305,740.201ZM1178.51,740.201L1186.66,740.201L1186.66,674.234L1178.51,674.234L1178.51,740.201ZM1207.23,740.201L1215.38,740.201L1215.38,703.725C1215.38,692.731 1220.03,679.667 1234.91,679.667C1246.16,679.667 1250.56,687.686 1250.56,700.103L1250.56,740.201L1258.71,740.201L1258.71,698.034C1258.71,683.547 1252.5,672.682 1236.2,672.682C1222.49,672.682 1217.57,680.055 1214.86,686.005L1214.6,686.005L1214.6,674.234L1206.71,674.234C1207.23,679.537 1207.23,684.711 1207.23,689.756L1207.23,740.201ZM510.054,740.201L518.202,740.201L518.202,643.191L510.054,643.191L510.054,740.201ZM578.607,707.217C578.607,691.955 586.238,679.667 600.466,679.667C614.694,679.667 622.326,691.955 622.326,707.217C622.326,722.48 614.694,734.768 600.466,734.768C586.238,734.768 578.607,722.48 578.607,707.217ZM815.827,707.217C815.827,691.955 823.458,679.667 837.686,679.667C851.914,679.667 859.545,691.955 859.545,707.217C859.545,722.48 851.914,734.768 837.686,734.768C823.458,734.768 815.827,722.48 815.827,707.217ZM442.018,707.217C442.018,691.955 449.649,679.667 463.877,679.667C478.105,679.667 485.737,691.955 485.737,707.217C485.737,722.48 478.105,734.768 463.877,734.768C449.649,734.768 442.018,722.48 442.018,707.217ZM1038.04,707.217C1038.04,720.023 1034.03,734.768 1018.51,734.768C1004.02,734.768 998.98,719.247 998.98,707.217C998.98,695.188 1004.02,679.667 1018.51,679.667C1034.03,679.667 1038.04,694.412 1038.04,707.217ZM370.102,707.217C370.102,691.955 377.733,679.667 391.961,679.667C406.189,679.667 413.821,691.955 413.821,707.217C413.821,722.48 406.189,734.768 391.961,734.768C377.733,734.768 370.102,722.48 370.102,707.217ZM1284.19,707.217C1284.19,694.412 1288.2,679.667 1303.72,679.667C1318.59,679.667 1323.25,691.308 1323.25,707.217C1323.25,719.247 1317.95,733.216 1303.2,733.216C1289.36,733.216 1284.19,720.152 1284.19,707.217ZM1186.66,645.778L1178.51,645.778L1178.51,656.643L1186.66,656.643L1186.66,645.778ZM596.198,544.889L587.273,544.889L610.684,611.631L609.003,617.452C606.416,625.988 604.088,631.809 597.103,631.809C594.128,631.809 592.576,631.292 591.024,630.774L590.248,637.759C592.964,638.406 596.068,638.794 599.043,638.794C608.227,638.794 612.883,629.739 615.988,620.685L642.374,544.889L633.837,544.889L614.824,599.861L614.694,599.861L596.198,544.889ZM410.716,600.507C406.836,602.965 398.17,605.422 392.22,605.422C377.992,605.422 370.49,594.169 370.49,580.2L415.631,580.2L415.631,576.061C415.631,558.341 408,543.337 389.374,543.337C372.689,543.337 361.565,557.694 361.565,577.872C361.565,597.662 369.714,612.407 391.573,612.407C397.652,612.407 405.025,611.114 410.716,608.785L410.716,600.507ZM684.67,577.872C684.67,595.851 694.112,612.407 715.454,612.407C736.796,612.407 746.239,595.851 746.239,577.872C746.239,559.893 736.796,543.337 715.454,543.337C694.112,543.337 684.67,559.893 684.67,577.872ZM468.404,609.303C474.225,611.631 480.563,612.407 486.901,612.407C496.86,612.407 509.924,607.621 509.924,593.652C509.924,572.051 477.459,573.603 477.459,561.316C477.459,552.908 483.279,550.321 491.687,550.321C496.214,550.321 502.034,551.485 506.303,553.426L507.079,546.312C501.258,544.113 494.273,543.337 490.781,543.337C479.916,543.337 469.31,548.252 469.31,561.316C469.31,580.459 500.999,578.001 500.999,593.652C500.999,601.154 494.144,605.422 486.383,605.422C480.045,605.422 474.096,603.741 469.18,601.283L468.404,609.303ZM187.854,520.572L178.929,520.572L178.929,579.295C178.929,594.04 170.78,604.646 155.129,604.646C139.479,604.646 131.33,594.04 131.33,579.295L131.33,520.572L122.405,520.572L122.405,579.295C122.405,605.94 141.936,612.407 155.129,612.407C168.323,612.407 187.854,605.94 187.854,579.295L187.854,520.572ZM921.89,577.872C921.89,595.851 931.332,612.407 952.674,612.407C974.016,612.407 983.458,595.851 983.458,577.872C983.458,559.893 974.016,543.337 952.674,543.337C931.332,543.337 921.89,559.893 921.89,577.872ZM1022.52,577.872C1022.52,595.851 1031.96,612.407 1053.31,612.407C1074.65,612.407 1084.09,595.851 1084.09,577.872C1084.09,559.893 1074.65,543.337 1053.31,543.337C1031.96,543.337 1022.52,559.893 1022.52,577.872ZM904.04,522.383C899.384,519.925 888.648,519.02 883.345,519.02C855.406,519.02 837.815,538.292 837.815,565.713C837.815,593.652 854.889,612.407 883.345,612.407C889.036,612.407 899.125,611.502 904.04,608.527L903.523,600.766C898.349,603.87 889.295,604.646 883.345,604.646C859.545,604.646 846.74,588.478 846.74,565.713C846.74,543.337 859.933,526.78 883.345,526.78C889.683,526.78 897.832,527.686 903.523,530.661L904.04,522.383ZM1274.1,577.872C1274.1,595.851 1283.54,612.407 1304.88,612.407C1326.22,612.407 1335.67,595.851 1335.67,577.872C1335.67,559.893 1326.22,543.337 1304.88,543.337C1283.54,543.337 1274.1,559.893 1274.1,577.872ZM1206.45,610.855L1214.6,610.855L1214.6,600.378L1214.86,600.378C1219.26,608.785 1225.98,612.407 1235.42,612.407C1253.53,612.407 1262.59,597.403 1262.59,577.872C1262.59,557.823 1254.83,543.337 1235.42,543.337C1222.49,543.337 1216.02,552.779 1214.86,556.012L1214.6,556.012L1214.6,513.846L1206.45,513.846L1206.45,610.855ZM581.711,544.889L566.707,544.889L566.707,526.134L558.558,528.979L558.558,544.889L545.624,544.889L545.624,551.873L558.558,551.873L558.558,590.418C558.558,602.448 559.076,612.407 573.562,612.407C577.572,612.407 581.582,611.372 583.522,610.596L583.005,603.87C580.676,604.776 578.607,605.422 575.503,605.422C568.906,605.422 566.707,600.507 566.707,594.557L566.707,551.873L581.711,551.873L581.711,544.889ZM208.42,610.855L216.569,610.855L216.569,574.38C216.569,563.385 221.225,550.321 236.1,550.321C247.353,550.321 251.751,558.341 251.751,570.758L251.751,610.855L259.899,610.855L259.899,568.688C259.899,554.202 253.691,543.337 237.393,543.337C223.683,543.337 218.767,550.709 216.051,556.659L215.792,556.659L215.792,544.889L207.902,544.889C208.42,550.192 208.42,555.366 208.42,560.41L208.42,610.855ZM1187.31,610.855L1187.31,565.455C1187.31,552.649 1179.81,543.337 1166.48,543.337C1156.13,543.337 1148.37,549.545 1145.4,557.306L1145.14,557.306C1143.07,545.794 1133.5,543.337 1127.68,543.337C1113.58,543.337 1109.7,551.615 1107.11,556.142L1106.85,556.012L1106.85,544.889L1098.96,544.889C1099.48,550.192 1099.48,555.366 1099.48,560.41L1099.48,610.855L1107.63,610.855L1107.63,574.38C1107.63,557.953 1116.43,550.321 1125.35,550.321C1135.83,550.321 1139.32,557.694 1139.32,567.007L1139.32,610.855L1147.47,610.855L1147.47,574.38C1147.47,557.953 1156.26,550.321 1165.19,550.321C1175.67,550.321 1179.16,557.694 1179.16,567.007L1179.16,610.855L1187.31,610.855ZM355.098,544.889L346.561,544.889L327.418,601.93L327.159,601.93L308.921,544.889L299.996,544.889L322.373,610.855L331.945,610.855L355.098,544.889ZM431.153,610.855L439.302,610.855L439.302,578.26C439.302,566.36 442.794,551.873 455.729,551.873C457.798,551.873 459.997,552.132 461.678,552.649L461.678,544.113C460.256,543.725 457.927,543.337 455.987,543.337C447.58,543.337 442.018,550.192 439.043,557.565L438.784,557.565L438.784,544.889L430.635,544.889C431.153,549.675 431.153,552.391 431.153,559.634L431.153,610.855ZM998.851,610.855L1007,610.855L1007,513.846L998.851,513.846L998.851,610.855ZM767.193,610.855L775.341,610.855L775.341,551.873L790.216,551.873L790.216,544.889L775.341,544.889L775.341,539.198C775.341,531.307 774.177,519.278 785.301,519.278C787.629,519.278 790.087,519.796 791.768,520.701L792.286,513.587C790.734,512.682 787.241,512.294 784.654,512.294C767.71,512.294 767.193,526.263 767.193,540.103L767.193,544.889L753.87,544.889L753.87,551.873L767.193,551.873L767.193,610.855ZM280.336,610.855L288.485,610.855L288.485,544.889L280.336,544.889L280.336,610.855ZM524.54,610.855L532.689,610.855L532.689,544.889L524.54,544.889L524.54,610.855ZM1253.66,577.872C1253.66,590.677 1249.65,605.422 1234.13,605.422C1219.64,605.422 1214.6,589.901 1214.6,577.872C1214.6,565.843 1219.26,550.321 1234.13,550.321C1249.65,550.321 1253.66,565.067 1253.66,577.872ZM693.595,577.872C693.595,562.609 701.226,550.321 715.454,550.321C729.682,550.321 737.314,562.609 737.314,577.872C737.314,593.135 729.682,605.422 715.454,605.422C701.226,605.422 693.595,593.135 693.595,577.872ZM1283.02,577.872C1283.02,562.609 1290.65,550.321 1304.88,550.321C1319.11,550.321 1326.74,562.609 1326.74,577.872C1326.74,593.135 1319.11,605.422 1304.88,605.422C1290.65,605.422 1283.02,593.135 1283.02,577.872ZM1031.45,577.872C1031.45,562.609 1039.08,550.321 1053.31,550.321C1067.53,550.321 1075.16,562.609 1075.16,577.872C1075.16,593.135 1067.53,605.422 1053.31,605.422C1039.08,605.422 1031.45,593.135 1031.45,577.872ZM930.815,577.872C930.815,562.609 938.446,550.321 952.674,550.321C966.902,550.321 974.534,562.609 974.534,577.872C974.534,593.135 966.902,605.422 952.674,605.422C938.446,605.422 930.815,593.135 930.815,577.872ZM1756.56,386.559C1756.56,388.78 1756.46,391.011 1756.21,392.789L1756.15,393.268L1755.63,393.535C1747.53,398.356 1737.07,401.1 1726.57,401.391C1726.31,402.72 1725.18,412.204 1724.98,413.537C1734.77,416.362 1744.26,421.712 1750.88,428.55L1751.14,428.973L1751.14,429.407C1750.63,433.139 1749.31,438.148 1747.84,441.399L1747.67,441.912L1747.2,441.989C1738.02,444.632 1727.2,444.534 1717.19,442.055C1716.72,443.297 1713.02,452.11 1712.64,453.392C1721.41,458.935 1729.16,466.553 1733.53,474.683L1733.76,475.141L1733.61,475.616C1732.25,478.849 1729.68,483.536 1727.39,486.346L1727.14,486.768L1726.57,486.768C1717.19,486.877 1706.73,484.099 1697.6,479.01C1696.77,480.102 1690.67,488.161 1689.84,489.245C1697.04,496.66 1702.49,506.054 1704.7,515.324L1704.85,515.805L1704.58,516.141C1702.49,518.979 1698.65,522.738 1695.86,524.99L1695.53,525.276L1694.85,525.141C1685.83,522.738 1676.3,517.282 1668.9,510.124C1667.8,510.952 1660.24,516.859 1659.11,517.697C1663.95,526.563 1666.9,536.761 1666.9,545.978L1666.9,547.26L1666.33,547.574C1663.54,549.824 1658.91,552.507 1655.6,553.86L1655.27,554L1654.72,553.82C1646.61,549.097 1638.83,541.386 1633.52,532.553C1632.24,533.118 1623.04,537.057 1621.78,537.609C1623.04,542.528 1623.78,547.677 1623.92,552.763C1623.92,557.904 1623.04,563.04 1621.78,567.684L1621.71,568.144L1621.22,568.411C1618.14,569.693 1612.95,570.981 1609.33,571.612L1608.77,571.689L1608.46,571.3C1601.47,564.653 1596.12,555.198 1593.31,545.322C1592.06,545.415 1582.53,546.705 1581.19,546.985C1581.02,557.344 1578.18,567.848 1573.25,575.99L1572.98,576.418L1572.42,576.492C1569.11,576.991 1563.81,576.991 1560.2,576.492L1559.76,576.418L1559.44,575.99C1554.66,567.848 1551.81,557.344 1551.58,546.985C1550.16,546.845 1540.11,545.415 1538.72,545.322C1535.98,555.137 1530.57,564.539 1523.77,571.263L1523.41,571.612L1522.85,571.53C1519.12,570.981 1514.22,569.545 1510.94,568.184L1510.54,567.994L1510.38,567.576C1508.99,562.948 1508.27,557.759 1508.27,552.615C1508.27,547.574 1508.99,542.528 1510.27,537.609C1508.99,537.057 1500.3,533.536 1499.05,532.973C1493.68,541.955 1485.92,549.76 1477.73,554.315L1477.29,554.558L1476.77,554.418C1473.38,552.903 1468.91,550.339 1466.03,548.174L1465.68,547.823L1465.68,546.845C1465.68,537.517 1468.51,527.245 1473.38,518.258C1472.31,517.423 1464.2,511.266 1463.09,510.436C1455.67,517.589 1446.21,522.981 1437.08,525.321L1436.61,525.466L1436.11,525.141C1433.32,522.886 1429.72,519.257 1427.47,516.41L1427.16,515.913L1427.29,515.432C1429.72,506.223 1435.19,496.818 1442.31,489.512C1441.49,488.41 1435.36,480.464 1434.49,479.269C1425.45,484.337 1414.89,487.26 1405.52,487.022L1405.03,487.022L1404.7,486.702C1402.51,483.803 1399.89,479.172 1398.48,475.889L1398.27,475.4L1398.48,474.964C1403.2,466.703 1410.9,459.08 1419.71,453.802C1419.14,452.446 1415.38,443.572 1414.75,442.319C1404.74,444.812 1393.87,444.886 1384.71,442.319L1384.27,442.179L1384,441.767C1382.76,438.682 1381.41,433.485 1380.85,429.83L1380.74,429.259L1381.08,428.828C1387.73,422.043 1397.09,416.671 1407.11,413.703C1407,412.305 1405.52,402.213 1405.38,400.817C1394.93,400.677 1384.42,397.981 1376.24,393.12L1375.83,392.85L1375.8,392.287C1375.57,390.593 1375.5,388.375 1375.5,386.128C1375.5,383.935 1375.57,381.786 1375.8,379.951L1375.83,379.388L1376.24,379.163C1384.42,374.345 1394.93,371.556 1405.38,371.4C1405.6,370.023 1406.84,360.211 1407,358.889C1397.09,356.048 1387.64,350.629 1380.93,343.862L1380.65,343.532L1380.74,343.009C1381.18,339.237 1382.6,334.196 1384,331.064L1384.15,330.609L1384.65,330.472C1393.69,327.805 1404.62,327.881 1414.67,330.345C1415.23,329.124 1418.89,320.277 1419.44,318.947C1410.57,313.581 1402.78,305.945 1398.15,297.7L1397.92,297.174L1398.15,296.683C1399.61,293.373 1402.23,288.89 1404.28,286.078L1404.62,285.655L1405.18,285.655C1414.67,285.52 1425.12,288.417 1434.15,293.418C1434.99,292.408 1441.15,284.082 1441.99,282.977C1434.83,275.515 1429.41,266.166 1427.07,256.904L1426.96,256.505L1427.16,256.095C1429.46,253.222 1433.26,249.492 1436.03,247.301L1436.48,247.023L1436.89,247.105C1446.21,249.492 1455.61,255.035 1462.93,262.154C1464,261.308 1471.33,255.659 1472.41,254.834C1467.37,246.011 1464.55,235.729 1464.55,226.591L1464.55,225.216L1465.02,224.894C1467.77,222.745 1472.41,220.078 1475.73,218.733L1476.08,218.51L1476.63,218.748C1484.8,223.366 1492.48,231.092 1497.84,239.939C1499.13,239.453 1508.66,235.316 1509.96,234.793C1508.72,229.866 1507.94,224.757 1508.02,219.695C1508.02,214.437 1508.66,209.426 1510.05,204.802L1510.11,204.229L1510.61,204.099C1513.68,202.812 1518.81,201.432 1522.41,200.88L1522.99,200.806L1523.41,201.171C1530.2,207.781 1535.62,217.247 1538.48,227.228C1539.88,227.088 1549.89,225.827 1551.23,225.584C1551.45,215.304 1554.26,204.802 1559.17,196.645L1559.38,196.217L1559.89,196.077C1563.48,195.654 1568.76,195.654 1572.24,196.077L1572.69,196.217L1572.98,196.645C1577.92,204.802 1580.78,215.304 1580.78,225.489C1582.28,225.827 1592.06,227.088 1593.46,227.228C1596.38,217.247 1601.76,207.853 1608.6,201.216L1608.91,200.88L1609.37,201.02C1613.1,201.432 1618.14,202.812 1621.38,204.229L1621.78,204.387L1621.94,204.95C1623.34,209.529 1624.01,214.516 1624.01,219.695C1623.92,224.807 1623.18,229.956 1621.94,234.896C1623.18,235.404 1632.69,239.384 1634.01,239.939C1639.29,231.092 1646.88,223.427 1655.12,218.748L1655.6,218.51L1656.1,218.733C1659.36,220.118 1663.94,222.745 1666.75,224.957L1667.17,225.216L1667.17,226.498C1667.17,235.869 1664.27,246.109 1659.36,254.834C1660.42,255.659 1668.28,261.805 1669.45,262.709C1676.86,255.519 1686.26,250.018 1695.53,247.74L1695.94,247.512L1696.35,247.946C1699.14,250.018 1702.91,253.93 1705.04,256.738L1705.43,257.15L1705.26,257.626C1702.91,266.896 1697.32,276.3 1690.21,283.659C1691.04,284.793 1696.95,292.58 1697.86,293.704C1707.08,288.748 1717.51,285.906 1726.95,286.078L1727.39,286.078L1727.7,286.495C1729.99,289.43 1732.62,293.976 1733.9,297.098L1734.21,297.7L1733.9,298.152C1729.21,306.336 1721.49,313.912 1712.64,319.312C1713.18,320.655 1716.78,329.536 1717.47,330.778C1727.39,328.278 1738.3,328.225 1747.34,330.778L1747.88,330.887L1748.09,331.407C1749.35,334.55 1750.82,339.649 1751.29,343.403L1751.37,343.862L1751,344.233C1744.36,351.11 1734.91,356.492 1724.98,359.299C1725.18,360.668 1726.41,370.364 1726.65,371.741C1737.1,371.963 1747.53,374.762 1755.63,379.563L1756.15,379.867L1756.21,380.358C1756.46,382.127 1756.56,384.27 1756.56,386.559ZM370.49,573.215C370.49,562.35 377.862,550.321 389.892,550.321C402.05,550.321 406.707,561.704 406.707,573.215L370.49,573.215ZM1704.03,435.703L1681.47,428.003C1680.29,427.562 1677.21,427.562 1675.59,431.532C1657.38,475.223 1614.97,505.121 1565.87,505.121C1516.7,505.121 1473.51,474.533 1456.08,430.85C1454.78,427.562 1451.61,427.562 1450.41,428.003L1427.98,435.703C1425.54,436.583 1424.08,438.743 1425.36,441.859C1447.39,498.098 1502.19,537.794 1565.87,537.794C1629.53,537.794 1684.57,497.823 1706.68,441.621C1707.83,438.682 1706.44,436.583 1704.03,435.703ZM1576.27,519.949L1581.46,532.553C1579.76,532.624 1578.18,532.796 1576.66,532.973L1575.06,528.9L1564.67,529.188L1563.48,533.449C1561.82,533.303 1560.27,533.256 1558.62,533.256L1563.1,519.949L1566.29,509.855L1566.45,509.535L1571.74,509.297L1572.01,509.939L1576.27,519.949ZM1551.21,508.787L1549.47,523.373L1542.46,507.373C1540.82,507.053 1539.79,506.63 1538.14,506.366L1532.64,529.957C1534.34,530.412 1535.98,530.594 1537.73,530.901L1540.67,516.41L1547.77,532.553C1549.39,532.796 1551.21,533.303 1553.09,533.256L1555.72,508.89C1554.34,508.811 1552.7,509.033 1551.21,508.787ZM1599.19,505.155C1592.21,506.688 1586.84,507.957 1579.91,509.033L1580.55,513.056C1583.12,512.651 1585.46,512.347 1588.16,512.004L1591.65,531.384L1596.8,530.412L1592.63,511.092C1595.27,510.436 1597.71,509.768 1600.34,509.152L1599.19,505.155ZM1530.57,508.549L1530.57,509.855C1530.2,513.056 1528.04,516.307 1524.51,516.717L1525.33,527.89C1523.7,527.517 1521.85,526.975 1520.11,526.238L1519.92,515.723L1515.2,513.701L1511.37,522.981C1509.82,522.469 1508.27,521.972 1506.76,521.229L1511.61,509.939L1512.19,508.549L1516.14,499.231L1526.9,503.384C1529.29,504.238 1530.39,506.366 1530.57,508.549ZM288.485,516.433L280.336,516.433L280.336,527.298L288.485,527.298L288.485,516.433ZM532.689,516.433L524.54,516.433L524.54,527.298L532.689,527.298L532.689,516.433ZM1604.88,503.13L1612.83,525.812C1614.37,525.276 1616.03,524.805 1617.6,524.121L1609.89,501.542C1607.78,502.263 1606.81,502.551 1604.88,503.13ZM1573.12,524.536L1571.26,519.949L1569.38,514.988L1567.75,519.949L1566.14,524.842L1573.12,524.536ZM1498.67,494.891C1501.92,496.66 1505.1,498.505 1508.66,500.191L1510.79,496.66C1505.86,494.117 1501.24,491.204 1497.1,488.331L1483.51,508.274C1488.67,511.684 1493.38,514.533 1498.67,517.589L1500.86,514.068L1489.9,507.611L1493.6,502.411L1500.86,506.775L1502.98,503.384C1500.64,502.102 1498.21,500.624 1495.67,499.068L1498.67,494.891ZM1641,499.009C1642.02,500.799 1642.51,502.866 1642.59,504.981C1642.59,506.63 1642.25,508.322 1641.56,509.855C1640.44,512.08 1638.8,514.068 1636.5,515.395C1630.89,518.67 1623.64,516.717 1620.24,510.952C1620.12,510.621 1619.98,510.259 1619.75,509.855C1619.07,508.322 1618.73,506.63 1618.59,504.981C1618.73,500.738 1620.8,496.818 1624.61,494.616C1630.3,491.392 1637.64,493.318 1641,499.009ZM1638.29,504.981C1638.29,503.543 1637.93,502.263 1637.24,501.021C1635.26,497.32 1630.54,496.126 1626.86,498.235C1624.28,499.625 1622.95,502.263 1622.95,504.981C1623.04,506.223 1623.34,507.611 1624.07,508.787C1624.28,509.152 1624.53,509.535 1624.89,509.939C1627.2,512.694 1631.27,513.333 1634.4,511.515C1635.26,511.092 1635.94,510.534 1636.5,509.939C1637.64,508.549 1638.29,506.688 1638.29,504.981ZM1526.07,508.549C1525.92,507.875 1525.65,507.338 1524.83,506.96L1518.81,504.743L1517.45,508.549L1516.97,509.939L1516.92,510.024L1522.41,512.08C1523.91,512.747 1525.37,511.406 1525.89,509.939C1526.07,509.535 1526.22,509.033 1526.07,508.549ZM1649.81,476.473L1659.74,487.173L1643.08,482.256C1641.69,483.311 1640.76,483.678 1639.54,484.749L1654.04,504.238C1655.27,503.276 1656.55,502.102 1657.71,501.114L1648.91,489.391L1665.74,494.458C1666.9,493.453 1668.55,492.322 1669.68,490.895L1652.9,473.148C1652,474.12 1650.97,475.4 1649.81,476.473ZM1483.74,483.591L1471.03,498.668L1467.08,495.238L1480.22,480.596C1478.14,478.669 1476.55,476.933 1474.53,475.141L1477.46,472.204C1482.46,476.933 1486.86,480.596 1492.38,485.042L1489.85,488.28C1487.84,486.702 1485.77,485.188 1483.74,483.591ZM1482.69,453.765C1482.69,454.769 1483.37,456.019 1484.65,457.349C1502.84,476.473 1521.25,487.115 1546.54,493.049C1548.15,493.543 1549.74,493.786 1550.86,492.906C1552,492.052 1552.33,490.295 1552.14,487.53C1552.14,487.442 1547.84,428.828 1547.84,428.828C1547.65,426.608 1546.82,424.911 1545.26,424.014C1543.68,423.092 1541.72,423.092 1539.61,424.054L1486.86,449.728C1485.02,450.585 1483.03,451.552 1482.75,453.278C1482.75,453.392 1482.69,453.614 1482.69,453.765ZM1581.87,492.052C1582.77,492.755 1584.23,492.962 1586.49,492.399C1611.71,486.346 1630.21,475.656 1648.24,456.738C1649.31,455.491 1650.5,454.209 1650.14,452.789C1649.81,451.423 1648.65,450.188 1646.19,449.03L1593.31,423.364C1591.3,422.421 1589.36,422.421 1587.74,423.261C1586.19,424.244 1585.24,425.91 1585.1,428.228L1580.82,486.768C1580.78,488.687 1580.55,490.873 1581.87,492.052ZM1663.35,461.657L1687.21,469.495C1686.66,470.203 1686.21,470.88 1685.7,471.593C1685.29,472.13 1684.8,472.672 1684.46,473.372L1680.29,471.868L1673.77,480.004L1676.15,483.731C1675.18,484.836 1674.09,486.036 1672.85,487.26L1663.4,471.593L1659.9,465.821L1663.35,461.657ZM1471.5,465.313L1460.33,474.964L1466.03,458.422C1465.02,457.008 1464.55,456.019 1463.5,454.713L1443.48,468.295C1444.38,469.64 1445.47,470.88 1446.43,472.27L1458.46,463.933L1452.82,480.596C1453.79,481.699 1454.78,483.385 1456.16,484.506L1474.67,468.625C1473.65,467.531 1472.41,466.553 1471.5,465.313ZM1666.07,467.121L1668.9,471.593L1671.48,476.1L1674.97,471.593L1675.88,470.47L1666.07,467.121ZM1689.78,458.126L1672.25,448.475L1670.01,452.512L1691.04,464.253L1699.14,449.728L1695.53,447.793L1689.78,458.126ZM1458.27,446.088L1437.66,458.126C1438.4,459.569 1439.19,461.266 1440.1,462.654L1460.76,450.585C1459.75,448.766 1459.18,447.793 1458.27,446.088ZM856.155,430.799L856.858,444.38C856.964,446.41 855.534,448.231 853.528,448.617C847.784,449.677 839.881,450.97 834.922,450.97C810.026,450.97 802.435,441.427 802.435,410.223L802.435,362.536L792.887,362.536C790.609,362.536 788.772,360.694 788.772,358.418L788.772,344.321C788.772,342.045 790.609,340.222 792.887,340.222L802.435,340.222L802.435,323.453C802.435,321.552 803.719,319.9 805.54,319.459L822.063,315.441C823.282,315.153 824.561,315.42 825.549,316.192C826.543,316.982 827.143,318.158 827.143,319.424L827.143,340.222L852.264,340.222C854.561,340.222 856.38,342.045 856.38,344.321L856.38,358.418C856.38,360.694 854.561,362.536 852.264,362.536L827.143,362.536L827.143,406.75C827.143,422.039 827.685,427.344 838.393,427.344C842.366,427.344 848.545,427.053 851.876,426.897C854.086,426.852 856.049,428.515 856.155,430.799ZM1328.76,430.799L1329.46,444.38C1329.56,446.41 1328.13,448.231 1326.13,448.617C1320.38,449.677 1312.48,450.97 1307.54,450.97C1282.63,450.97 1275.04,441.427 1275.04,410.223L1275.04,362.536L1265.49,362.536C1263.21,362.536 1261.37,360.694 1261.37,358.418L1261.37,344.321C1261.37,342.045 1263.21,340.222 1265.49,340.222L1275.04,340.222L1275.04,323.453C1275.04,321.552 1276.32,319.9 1278.15,319.459L1294.66,315.441C1295.88,315.153 1297.16,315.42 1298.16,316.192C1299.15,316.982 1299.75,318.158 1299.75,319.424L1299.75,340.222L1324.88,340.222C1327.16,340.222 1328.98,342.045 1328.98,344.321L1328.98,358.418C1328.98,360.694 1327.16,362.536 1324.88,362.536L1299.75,362.536L1299.75,406.75C1299.75,422.039 1300.28,427.344 1311.01,427.344C1314.96,427.344 1321.14,427.053 1324.48,426.897C1326.69,426.852 1328.65,428.515 1328.76,430.799ZM956.938,374.233L956.938,445.934C956.938,447.131 956.423,448.258 955.532,449.037C954.625,449.822 953.422,450.171 952.265,450.002C943.875,448.828 939.881,446.201 935.911,443.148C935.747,443.222 917.176,450.71 900.595,450.71C880.631,450.71 869.178,438.107 869.178,416.073C869.178,394.559 879.661,385.041 905.377,383.117L932.229,380.96L932.229,374.444C932.229,366.194 927.329,361.45 918.794,361.45C907.026,361.45 890.237,362.827 881.295,363.628C880.177,363.752 879.045,363.385 878.194,362.647C877.37,361.92 876.854,360.839 876.812,359.726L876.27,346.018C876.191,343.93 877.679,342.117 879.725,341.808C887.726,340.531 907.647,337.629 920.097,337.629C945.236,337.629 956.938,349.27 956.938,374.233ZM1246.42,428.607L1246.96,442.315C1247.05,444.401 1245.55,446.217 1243.51,446.531C1235.5,447.816 1222.76,450.71 1210.31,450.71C1176.59,450.71 1161.55,433.402 1161.55,394.588L1161.56,394.588C1161.56,394.303 1161.55,394.036 1161.55,393.751C1161.55,354.937 1176.59,337.629 1210.31,337.629C1222.76,337.629 1235.5,340.531 1243.51,341.808C1245.55,342.117 1247.05,343.93 1246.96,346.018L1246.42,359.726C1246.38,360.839 1245.86,361.92 1245.04,362.647C1244.19,363.385 1243.05,363.752 1241.94,363.628C1232.98,362.827 1222.07,360.157 1210.31,360.157C1192.86,360.157 1186.67,368.943 1186.67,393.751C1186.67,394.7 1186.7,395.601 1186.71,396.518C1186.72,397.052 1186.72,397.612 1186.74,398.13C1186.77,398.918 1186.79,399.687 1186.83,400.446C1186.86,401.165 1186.9,401.881 1186.95,402.558C1186.97,402.939 1187,403.288 1187.03,403.647C1188.54,421.555 1195.19,428.171 1210.31,428.171C1222.07,428.171 1232.98,425.502 1241.94,424.711C1243.05,424.595 1244.19,424.944 1245.04,425.687C1245.86,426.416 1246.38,427.503 1246.42,428.607ZM778.183,393.751C778.183,433.135 763.22,450.71 729.657,450.71C695.935,450.71 680.882,433.135 680.882,393.751C680.882,354.937 695.935,337.629 729.657,337.629C762.76,337.629 778.183,355.442 778.183,393.751ZM1143.33,374.233L1143.33,445.934C1143.33,447.131 1142.81,448.258 1141.92,449.037C1141.01,449.822 1139.82,450.171 1138.66,450.002C1130.26,448.828 1126.28,446.201 1122.31,443.148C1122.14,443.222 1103.57,450.71 1086.99,450.71C1067.02,450.71 1055.56,438.107 1055.56,416.073C1055.56,394.559 1066.05,385.041 1091.77,383.117L1118.62,380.96L1118.62,374.444C1118.62,366.194 1113.72,361.45 1105.18,361.45C1093.42,361.45 1076.63,362.827 1067.68,363.628C1066.56,363.752 1065.43,363.385 1064.58,362.647C1063.75,361.92 1063.23,360.839 1063.19,359.726L1062.65,346.018C1062.57,343.93 1064.06,342.117 1066.11,341.808C1074.11,340.531 1094.04,337.629 1106.49,337.629C1131.63,337.629 1143.33,349.27 1143.33,374.233ZM665.831,442.585C666.389,443.851 666.267,445.316 665.522,446.492C664.755,447.66 663.476,448.353 662.07,448.353L642.901,448.353C641.289,448.353 639.801,447.385 639.161,445.91L614.616,390.674C602.402,390.589 591.814,389.936 586.086,389.537L586.086,444.248C586.086,446.518 584.267,448.353 581.994,448.353L564.85,448.353C562.574,448.353 560.737,446.518 560.737,444.248L560.737,305.698C560.737,303.604 562.307,301.854 564.396,301.622C586.371,299.14 603.97,298.883 610.504,298.883C612.756,298.883 613.958,298.894 613.958,298.894C656.133,298.894 665.007,323.815 665.007,344.686C665.007,362.124 656.672,374.716 639.552,383.212L665.831,442.585ZM1037.12,339.402C1026.2,340.052 1015.46,346.291 1008.78,351.041L1008.78,344.321C1008.78,342.045 1006.93,340.222 1004.66,340.222L988.159,340.222C985.886,340.222 984.044,342.045 984.044,344.321L984.044,444.248C984.044,446.518 985.886,448.353 988.159,448.353L1004.66,448.353C1006.93,448.353 1008.78,446.518 1008.78,444.248L1008.78,375.176C1012.5,372.076 1024.02,363.438 1037.74,362.222C1039.85,362.042 1041.49,360.263 1041.49,358.135L1041.49,343.489C1041.49,342.355 1041.03,341.284 1040.18,340.518C1039.37,339.719 1038.24,339.296 1037.12,339.402ZM1094.79,401.519C1085.08,402.434 1080.48,406.861 1080.48,415.404C1080.48,420.641 1081.92,429.514 1091.54,429.514C1102.95,429.514 1118.46,425.206 1118.62,425.153L1118.62,400.256L1094.79,401.519ZM908.393,401.519C898.695,402.434 894.085,406.861 894.085,415.404C894.085,420.641 895.531,429.514 905.142,429.514C916.563,429.514 932.068,425.206 932.229,425.153L932.229,400.256L908.393,401.519ZM753.062,393.751C753.062,369.559 746.486,360.157 729.657,360.157C712.209,360.157 706.029,368.943 706.029,393.751C706.029,416.24 709.788,428.399 729.657,428.399C749.219,428.399 753.062,415.706 753.062,393.751ZM1471.33,348.708C1469.6,347.592 1467.77,346.315 1466.26,346.984C1465.04,347.352 1464.14,348.639 1463.5,350.722C1456.16,375.907 1456.16,397.259 1463.5,422.119C1464,423.737 1464.55,425.349 1466.03,425.756C1467.23,426.261 1469.01,425.756 1471.33,424.163L1519.78,391.153C1521.58,389.943 1522.67,388.219 1522.67,386.493C1522.67,384.616 1521.58,382.967 1519.78,381.704L1471.33,348.708ZM1660.73,423.819C1662.3,424.839 1664.12,426.074 1665.77,425.5C1666.9,425.159 1667.86,423.927 1668.48,421.712C1675.88,396.614 1675.88,375.18 1668.48,350.381C1668.03,348.827 1667.3,347.217 1666,346.638C1664.68,346.165 1663.02,346.707 1660.65,348.316L1612.16,381.289C1610.28,382.549 1609.33,384.27 1609.33,386.049C1609.33,387.817 1610.28,389.538 1612.16,390.778L1660.73,423.819ZM1565.87,424.244C1586.75,424.244 1603.72,407.293 1603.72,386.417C1603.72,365.537 1586.75,348.567 1565.87,348.488C1545,348.488 1528.04,365.537 1528.04,386.417C1528.04,407.293 1545,424.244 1565.87,424.244ZM1424.3,423.658L1446.8,417.126C1448.91,416.505 1450.64,414.293 1450.48,411.541C1442.4,369.632 1452.66,335.655 1477.23,308.419C1479.71,306.65 1479.98,303.011 1477.61,300.526L1461.25,284.082C1459.66,282.264 1456.77,282.264 1454.29,284.793C1422.94,317.789 1407.11,368.432 1418.72,420.208C1419.36,422.688 1421.33,424.514 1424.3,423.658ZM1677.95,284.566C1675.74,281.859 1672.08,282.264 1671.02,284.148L1654.72,300.526C1652.33,303.011 1652.57,306.65 1655.04,308.419C1679.65,335.655 1689.93,369.56 1681.86,411.541C1681.68,414.293 1683.41,416.505 1685.56,417.126L1708.1,423.658C1711.1,424.514 1713.02,422.688 1713.66,420.121C1725.26,368.432 1709.38,317.62 1677.95,284.566ZM1565.87,420.554C1547.1,420.554 1531.76,405.147 1531.76,386.417C1531.76,367.549 1547.1,352.223 1565.87,352.223C1584.77,352.223 1599.96,367.549 1599.96,386.417C1599.96,405.231 1584.69,420.554 1565.87,420.554ZM1566.29,409.262C1578.75,409.262 1588.99,399.028 1588.99,386.559C1588.99,376.198 1581.79,367.187 1571.87,364.71C1571.74,363.692 1571.47,358.958 1571.47,358.958L1560.02,358.958C1560.02,358.958 1559.76,364.102 1559.66,365.125C1550.16,368.009 1543.75,376.676 1543.75,386.559C1543.75,399.028 1553.98,409.262 1566.29,409.262ZM613.871,322.676L604.842,322.676C594.75,322.676 588.999,323.429 586.086,324.018L586.086,366.734C590.899,367.067 600.185,367.558 612.674,367.426C628.779,367.257 638.767,358.706 638.767,345.128C638.767,334.272 632.239,322.676 613.871,322.676ZM1481.93,319.822C1482.15,321.59 1484.16,322.492 1485.92,323.316L1538.72,348.969C1540.82,349.971 1542.77,349.971 1544.36,349.141C1545.85,348.168 1546.82,346.479 1546.95,344.233L1551.21,285.655C1551.45,282.827 1551.05,281.167 1550.03,280.3C1548.91,279.338 1547.26,279.607 1545.67,279.901C1520.36,285.988 1501.92,296.683 1483.74,315.64C1482.27,317.3 1481.59,318.693 1481.93,319.822ZM1650.04,318.886C1650.1,317.884 1649.49,316.616 1648.08,315.233C1630.07,296.178 1611.57,285.52 1586.19,279.483C1584.77,279.115 1583.12,278.777 1582.01,279.752C1580.88,280.659 1580.55,282.417 1580.78,285.05L1584.96,343.754C1585.1,345.98 1586.1,347.743 1587.58,348.639C1589.21,349.559 1591.16,349.39 1593.18,348.417L1646.05,322.896C1647.75,322.074 1649.67,321.178 1650.04,319.373C1650.04,319.259 1650.1,319.113 1650.04,318.886ZM1470.27,275.383L1485.92,292.818C1488.1,295.171 1490.51,294.88 1493.68,292.408C1513.45,276.892 1538.83,267.718 1565.87,267.718C1592.94,267.718 1618.33,276.858 1638.29,292.408C1641.41,294.713 1643.76,295.171 1646.05,292.818L1661.71,275.383C1663.48,273.454 1663.48,270.797 1660.09,267.956C1633.83,247.512 1601.43,234.896 1565.81,234.896C1530.39,234.896 1497.52,247.512 1471.74,268.048C1468.36,270.797 1468.51,273.454 1470.27,275.383ZM1489.58,263.922L1488.26,261.535C1491.75,259.32 1495.51,257.393 1499.13,255.458C1503.39,253.103 1509.41,258.805 1508.99,263.922C1508.91,264.826 1508.66,265.645 1508.12,266.475L1516.84,272.819C1515.2,273.588 1513.95,274.247 1511.99,275.098L1504.36,269.515L1500.14,271.772L1504.63,279.192C1502.89,280.3 1501.84,280.987 1499.81,282.171L1489.58,263.922ZM1625.43,278.452L1630.62,268.46L1644.63,261.95C1643.15,260.893 1641.56,260.153 1640.08,259.183L1630.44,263.576L1628.66,253.103C1626.64,252.151 1625.43,251.729 1623.34,250.88L1626.14,266.113L1620.95,275.988L1625.43,278.452ZM1599.05,267.371C1597.13,266.816 1595.71,266.576 1593.59,265.976L1597.49,252.683L1600.34,243.207C1604.45,244.23 1608.35,245.562 1612.26,246.833C1614.48,247.512 1615.66,250.018 1615.89,252.683C1616.03,256.304 1614.23,260.237 1610.58,261.059L1612,271.772C1610.28,271.061 1609.02,270.527 1607.12,269.782L1605.88,260.422L1601.29,259.011L1599.05,267.371ZM1516.14,257.48L1516.14,256.36C1516.02,250.185 1520.75,245.097 1526.98,244.6C1533.55,243.96 1539.39,248.792 1539.94,255.405L1539.94,256.36C1539.94,262.526 1535.29,267.802 1528.96,268.384C1522.57,268.947 1516.7,264.133 1516.14,257.48ZM1494.84,262.796L1495.51,263.922L1497.94,268.122L1502.98,265.476C1503.44,265.241 1503.71,264.651 1503.81,263.922C1503.9,261.649 1502.26,258.567 1499.87,260.005C1498.01,260.977 1496.88,261.649 1494.84,262.796ZM1570.21,262.962C1568.2,262.944 1567.28,262.944 1565.31,262.944L1571.26,250.6L1576.66,239.384L1582.01,239.939L1584.83,250.6L1588.72,264.929C1586.91,264.591 1585.51,264.321 1583.81,264.223L1582.43,259.73C1578.89,259.183 1575.7,259.011 1572.42,258.871L1570.21,262.962ZM1520.52,257.057C1520.84,261.308 1524.6,264.408 1528.69,264.059C1532.73,263.642 1535.74,260.422 1535.74,256.36C1535.88,256.159 1535.74,255.926 1535.74,255.659C1535.39,251.388 1531.71,248.393 1527.46,248.792C1523.41,249.093 1520.36,252.297 1520.52,256.36L1520.52,257.057ZM1550.4,244.182L1552.51,263.729L1557.64,263.187L1555.63,243.788L1563.4,243.31L1563.1,238.954C1554.43,239.453 1550.86,239.802 1542.28,241.087L1542.86,245.221L1550.4,244.182ZM1602.34,254.834L1607.71,256.568C1609.18,256.989 1611.13,254.689 1611.13,252.683C1611.13,251.729 1610.79,250.88 1609.51,250.6C1607.53,249.833 1606.17,249.492 1604,248.945L1602.9,252.683L1602.34,254.834ZM1574.18,254.834C1576.78,254.959 1579.2,255.249 1581.64,255.596L1580.36,250.6L1578.75,245.453L1576.33,250.6L1574.18,254.834Z" style="fill:white;fill-rule:nonzero;"/>
        </g>
    </g>
</svg>
